<svg width="14" height="14" viewBox="0 0 14 14" fill="none" xmlns="http://www.w3.org/2000/svg">
<path fill-rule="evenodd" clip-rule="evenodd" d="M14 7.15912C14 6.66276 13.9545 6.18549 13.8701 5.72731H7.14285V8.43503H10.987C10.8214 9.31003 10.3182 10.0514 9.56169 10.5478V12.3041H11.8701C13.2208 11.0855 14 9.29094 14 7.15912Z" fill="#4285F4"/>
<path fill-rule="evenodd" clip-rule="evenodd" d="M7.14287 14C9.07144 14 10.6883 13.3732 11.8701 12.3041L9.56169 10.5478C8.92207 10.9678 8.10391 11.2159 7.14287 11.2159C5.28247 11.2159 3.7078 9.98452 3.14611 8.32998H0.759744V10.1436C1.93507 12.4313 4.35066 14 7.14287 14Z" fill="#34A853"/>
<path fill-rule="evenodd" clip-rule="evenodd" d="M3.14611 8.32998C3.00325 7.90998 2.92208 7.46139 2.92208 7.00003C2.92208 6.53866 3.00325 6.09003 3.14611 5.67003V3.85639H0.759741C0.275974 4.80139 0 5.87048 0 7.00003C0 8.12957 0.275977 9.19862 0.759744 10.1436L3.14611 8.32998Z" fill="#FBBC05"/>
<path fill-rule="evenodd" clip-rule="evenodd" d="M7.14287 2.78409C8.19157 2.78409 9.13313 3.13727 9.87339 3.8309L11.9221 1.82318C10.6851 0.693635 9.06819 0 7.14287 0C4.35066 0 1.93507 1.56867 0.759741 3.85639L3.14611 5.67003C3.70779 4.01548 5.28247 2.78409 7.14287 2.78409Z" fill="#EA4335"/>
</svg>
