<svg width="240" height="120" viewBox="0 0 240 120" fill="none" xmlns="http://www.w3.org/2000/svg">
<path d="M119.927 62.9619C118.383 94.7231 92.1439 120 60 120C26.8629 120 0 93.1371 0 60C0 40.5823 9.22391 23.3188 23.5293 12.3525L119.927 62.9619Z" fill="white"/>
<path d="M90.5664 47.5469C92.1337 51.3899 93 55.5935 93 60C93 78.2254 78.2254 93 60 93C41.7746 93 27 78.2254 27 60C27 44.2145 38.0841 31.02 52.8936 27.7695L90.5664 47.5469Z" fill="black"/>
<path d="M216.47 12.3525C230.775 23.3188 240 40.582 240 60C240 93.1371 213.137 120 180 120C147.856 120 121.616 94.7231 120.072 62.9619L216.47 12.3525Z" fill="white"/>
<path d="M187.768 27.4219C202.245 30.9149 213 43.9503 213 59.5C213 77.7254 198.225 92.5 180 92.5C161.775 92.5 147 77.7254 147 59.5C147 55.3341 147.773 51.3488 149.182 47.6787L187.768 27.4219Z" fill="black"/>
</svg>
