<svg width="240" height="120" viewBox="0 0 240 120" fill="none" xmlns="http://www.w3.org/2000/svg">
<path d="M60 38C77.4725 38 89.0506 45.5091 96.0976 53.2852C99.5338 57.0769 101.835 60.8536 103.29 63.7041C104.022 65.1375 104.552 66.3631 104.915 67.2764C105.097 67.7337 105.237 68.1156 105.341 68.4092C105.392 68.556 105.435 68.6815 105.469 68.7832C105.486 68.834 105.501 68.8789 105.514 68.918C105.52 68.9375 105.525 68.9561 105.53 68.9727C105.533 68.9808 105.536 68.9887 105.538 68.9961C105.539 68.9998 105.541 69.005 105.542 69.0068C105.543 69.0121 105.501 69.0309 96.0341 71.9893L105.545 69.0176C107.192 74.2889 104.254 79.8976 98.9824 81.5449C93.7139 83.1911 88.1086 80.2572 86.458 74.9912V74.9922C86.4584 74.9937 86.46 74.9989 86.4609 75.002C86.4628 75.0079 86.4651 75.0133 86.4668 75.0186C86.4701 75.0292 86.473 75.0389 86.4756 75.0469C86.4807 75.0629 86.4845 75.0736 86.4863 75.0791C86.4898 75.0898 86.4866 75.0803 86.4765 75.0518C86.4561 74.9939 86.408 74.8598 86.3291 74.6611C86.1705 74.262 85.8922 73.6123 85.4756 72.7959C84.6337 71.1465 83.2783 68.9228 81.2773 66.7148C77.4493 62.491 71.0272 58 60 58C48.9728 58 42.5506 62.491 38.7226 66.7148C36.7216 68.9228 35.3663 71.1465 34.5244 72.7959C34.1077 73.6123 33.8295 74.262 33.6709 74.6611C33.5919 74.8598 33.5438 74.9939 33.5234 75.0518C33.5134 75.0803 33.5101 75.0898 33.5136 75.0791C33.5155 75.0736 33.5192 75.0629 33.5244 75.0469C33.527 75.0389 33.5298 75.0292 33.5332 75.0186C33.5348 75.0133 33.5372 75.0079 33.539 75.002C33.54 74.9989 33.5415 74.9937 33.542 74.9922L33.541 74.9912C31.8902 80.257 26.286 83.1911 21.0176 81.5449C15.7462 79.8976 12.808 74.2889 14.4551 69.0176L23.9658 71.9893C14.4986 69.0308 14.4565 69.0121 14.458 69.0068C14.4586 69.005 14.4607 68.9998 14.4619 68.9961C14.4642 68.9887 14.4671 68.9808 14.4697 68.9727C14.4749 68.9561 14.48 68.9375 14.4863 68.918C14.4989 68.8789 14.5144 68.834 14.5312 68.7832C14.565 68.6815 14.6075 68.556 14.6592 68.4092C14.7625 68.1156 14.9032 67.7337 15.0849 67.2764C15.4478 66.3631 15.9783 65.1375 16.7099 63.7041C18.1649 60.8536 20.4661 57.0769 23.9023 53.2852C30.9494 45.5091 42.5275 38 60 38Z" fill="black"/>
<path d="M180 38C197.472 38 209.051 45.5091 216.098 53.2852C219.534 57.0769 221.835 60.8536 223.29 63.7041C224.022 65.1375 224.552 66.3631 224.915 67.2764C225.097 67.7337 225.237 68.1156 225.341 68.4092C225.392 68.556 225.435 68.6815 225.469 68.7832C225.486 68.834 225.501 68.8789 225.514 68.918C225.52 68.9375 225.525 68.9561 225.53 68.9727C225.533 68.9808 225.536 68.9887 225.538 68.9961C225.539 68.9998 225.541 69.005 225.542 69.0068C225.543 69.0121 225.501 69.0309 216.034 71.9893L225.545 69.0176C227.192 74.2889 224.254 79.8976 218.982 81.5449C213.714 83.1911 208.109 80.2572 206.458 74.9912V74.9922C206.458 74.9937 206.46 74.9989 206.461 75.002C206.463 75.0079 206.465 75.0133 206.467 75.0186C206.47 75.0292 206.473 75.0389 206.476 75.0469C206.481 75.0629 206.484 75.0736 206.486 75.0791C206.49 75.0898 206.487 75.0803 206.477 75.0518C206.456 74.9939 206.408 74.8598 206.329 74.6611C206.17 74.262 205.892 73.6123 205.476 72.7959C204.634 71.1465 203.278 68.9228 201.277 66.7148C197.449 62.491 191.027 58 180 58C168.973 58 162.551 62.491 158.723 66.7148C156.722 68.9228 155.366 71.1465 154.524 72.7959C154.108 73.6123 153.829 74.262 153.671 74.6611C153.592 74.8598 153.544 74.9939 153.523 75.0518C153.513 75.0803 153.51 75.0898 153.514 75.0791C153.515 75.0736 153.519 75.0629 153.524 75.0469C153.527 75.0389 153.53 75.0292 153.533 75.0186C153.535 75.0133 153.537 75.0079 153.539 75.002C153.54 74.9989 153.541 74.9937 153.542 74.9922L153.541 74.9912C151.89 80.257 146.286 83.1911 141.018 81.5449C135.746 79.8976 132.808 74.2889 134.455 69.0176L143.966 71.9893C134.499 69.0308 134.457 69.0121 134.458 69.0068C134.459 69.005 134.461 68.9998 134.462 68.9961C134.464 68.9887 134.467 68.9808 134.47 68.9727C134.475 68.9561 134.48 68.9375 134.486 68.918C134.499 68.8789 134.514 68.834 134.531 68.7832C134.565 68.6815 134.607 68.556 134.659 68.4092C134.763 68.1156 134.903 67.7337 135.085 67.2764C135.448 66.3631 135.978 65.1375 136.71 63.7041C138.165 60.8536 140.466 57.0769 143.902 53.2852C150.949 45.5091 162.527 38 180 38Z" fill="black"/>
</svg>
