<svg width="240" height="120" viewBox="0 0 240 120" fill="none" xmlns="http://www.w3.org/2000/svg">
<path d="M54.7705 39.4766C58.0843 37.4425 62.2927 37.5102 65.5469 39.6797L101.547 63.6797C106.142 66.7432 107.384 72.9516 104.32 77.5469C101.257 82.1422 95.0485 83.3838 90.4532 80.3203L60 60.0176L29.5469 80.3203C24.9516 83.3838 18.7432 82.1422 15.6797 77.5469C12.6162 72.9516 13.8579 66.7432 18.4532 63.6797L54.4532 39.6797L54.7705 39.4766Z" fill="black"/>
<path d="M174.771 39.4766C178.084 37.4425 182.293 37.5102 185.547 39.6797L221.547 63.6797C226.142 66.7432 227.384 72.9516 224.32 77.5469C221.257 82.1422 215.048 83.3838 210.453 80.3203L180 60.0176L149.547 80.3203C144.952 83.3838 138.743 82.1422 135.68 77.5469C132.616 72.9516 133.858 66.7432 138.453 63.6797L174.453 39.6797L174.771 39.4766Z" fill="black"/>
</svg>
