<svg width="240" height="120" viewBox="0 0 240 120" fill="none" xmlns="http://www.w3.org/2000/svg">
<path d="M15.1729 20.1172C24.2843 29.9996 37.5616 41.4766 55.1768 49.5C75.513 58.7628 97.7063 63.4005 119.902 63.4141C118.133 94.9626 91.9912 120 60 120C26.8629 120 0 93.1371 0 60C0 44.6895 5.73438 30.7182 15.1729 20.1172Z" fill="white"/>
<path d="M35.3867 38.0205C41.2377 42.2026 47.8289 46.1532 55.1768 49.5C67.2519 55 79.9821 58.8684 92.9785 61.1074C92.3944 78.8201 77.8548 93 60 93C41.7746 93 27 78.2254 27 60C27 51.5575 30.1716 43.8565 35.3867 38.0205Z" fill="black"/>
<path d="M224.826 20.1172C234.265 30.7182 240 44.6893 240 60C240 93.1371 213.137 120 180 120C148.009 120 121.866 94.9627 120.097 63.4141C142.293 63.4006 164.487 58.7629 184.823 49.5C202.438 41.4767 215.715 29.9995 224.826 20.1172Z" fill="white"/>
<path d="M204.885 37.8271C209.939 43.625 213 51.2047 213 59.5C213 77.7254 198.225 92.5 180 92.5C162.313 92.5 147.876 78.5847 147.039 61.1045C160.029 58.865 172.753 54.9976 184.823 49.5C192.285 46.1014 198.967 42.0812 204.885 37.8271Z" fill="black"/>
</svg>
