<svg width="240" height="120" viewBox="0 0 240 120" fill="none" xmlns="http://www.w3.org/2000/svg">
<path d="M84.9287 20.9287C88.8339 17.0235 95.166 17.0235 99.0713 20.9287C102.977 24.834 102.977 31.1661 99.0713 35.0713L74.1426 60L99.0713 84.9287C102.977 88.834 102.977 95.1661 99.0713 99.0713C95.166 102.977 88.8339 102.977 84.9287 99.0713L60 74.1426L35.0713 99.0713C31.166 102.977 24.8339 102.977 20.9287 99.0713C17.0234 95.1661 17.0234 88.834 20.9287 84.9287L45.8574 60L20.9287 35.0713C17.0234 31.1661 17.0234 24.834 20.9287 20.9287C24.8339 17.0235 31.166 17.0235 35.0713 20.9287L60 45.8574L84.9287 20.9287Z" fill="black"/>
<path d="M204.929 20.9287C208.834 17.0235 215.166 17.0235 219.071 20.9287C222.977 24.834 222.977 31.1661 219.071 35.0713L194.143 60L219.071 84.9287C222.977 88.834 222.977 95.1661 219.071 99.0713C215.166 102.977 208.834 102.977 204.929 99.0713L180 74.1426L155.071 99.0713C151.166 102.977 144.834 102.977 140.929 99.0713C137.023 95.1661 137.023 88.834 140.929 84.9287L165.857 60L140.929 35.0713C137.023 31.1661 137.023 24.834 140.929 20.9287C144.834 17.0235 151.166 17.0235 155.071 20.9287L180 45.8574L204.929 20.9287Z" fill="black"/>
</svg>
