<svg width="240" height="120" viewBox="0 0 240 120" fill="none" xmlns="http://www.w3.org/2000/svg">
<path d="M14.6367 27.4883C16.5761 22.3174 22.3407 19.6976 27.5117 21.6367L99.5117 48.6367C103.311 50.0616 105.872 53.6414 105.995 57.6973C106.118 61.7533 103.778 65.4817 100.071 67.1338L30.5215 98.1338C25.4771 100.382 19.5649 98.1156 17.3164 93.0713C15.068 88.0268 17.3345 82.1146 22.3789 79.8662L69.6465 58.7969L20.4883 40.3633C15.3174 38.4239 12.6976 32.6593 14.6367 27.4883Z" fill="black"/>
<path d="M225.363 89.5117C223.424 94.6826 217.659 97.3024 212.488 95.3633L140.488 68.3633C136.689 66.9384 134.128 63.3586 134.005 59.3027C133.882 55.2467 136.222 51.5183 139.929 49.8662L209.478 18.8662C214.523 16.6178 220.435 18.8844 222.684 23.9287C224.932 28.9732 222.666 34.8854 217.621 37.1338L170.353 58.2031L219.512 76.6367C224.683 78.5761 227.302 84.3407 225.363 89.5117Z" fill="black"/>
</svg>
