<svg width="127" height="127" viewBox="0 0 127 127" fill="none" xmlns="http://www.w3.org/2000/svg">
<path d="M52.4912 103.941C42.1187 109.777 24.7816 107.073 24.7816 107.073C62.4906 138.765 120.876 121.739 120.876 121.739L126.54 96.7988C126.54 96.7988 86.1115 90.8235 72.8908 44.7064C72.8908 44.7064 64.4059 55.5955 70.9031 68.0871C61.5007 60.2662 36.742 34.7727 63.0207 0.364007C63.0207 0.364007 -17.6703 5.99841 37.98 63.3264C24.9306 78.7115 1.823 38.1069 1.823 38.1069C-8.45883 91.6524 36.2251 101.969 52.4912 103.941Z" fill="#FFC300"/>
<path d="M124.334 98.4839L118.452 118.747C118.452 118.747 86.4859 132.551 51.5219 112.858C51.5219 112.858 66.4843 114.24 74.8498 106.18C74.8498 106.18 35.3182 104.755 24.3385 76.3373C24.3385 76.3373 41.514 90.8839 58.0566 88.519C58.0566 88.519 37.4255 76.7545 43.3184 56.6916C43.3184 56.6916 54.4342 78.928 76.0004 74.3363C76.0004 74.3363 69.7998 65.886 74.1624 57.5818C74.1624 57.5818 75.7716 77.9125 100.006 92.4164C100.006 92.4164 93.6261 88.986 93.4297 82.3091C93.4315 82.3082 105.748 95.5869 124.334 98.4839Z" fill="#FF3900"/>
<path d="M41.685 51.0932C41.685 51.0932 32.3631 32.1859 45.2269 17.024C45.2269 17.024 34.1579 19.359 34.2266 31.2415C34.2266 31.2415 30.7288 26.7224 32.0373 22.0407C32.0373 22.0407 20.6599 40.3994 41.685 51.0932Z" fill="#FF3900"/>
<path d="M20.9859 73.5991C20.9859 73.5991 10.237 73.8102 10.0313 57.1379C10.0313 57.1388 2.93121 81.2728 20.9859 73.5991Z" fill="#FF3900"/>
</svg>
