<svg width="127" height="127" viewBox="0 0 127 127" fill="none" xmlns="http://www.w3.org/2000/svg">
<path d="M74.2176 103.941C84.5901 109.777 101.927 107.073 101.927 107.073C64.2182 138.765 5.83293 121.739 5.83293 121.739L0.169218 96.7988C0.169218 96.7988 40.5973 90.8235 53.818 44.7064C53.818 44.7064 62.3029 55.5955 55.8057 68.0871C65.2081 60.2662 89.9668 34.7727 63.6881 0.364007C63.6881 0.364007 144.379 5.99841 88.7288 63.3264C101.778 78.7115 124.886 38.1069 124.886 38.1069C135.168 91.6524 90.4837 101.969 74.2176 103.941Z" fill="#FFC300"/>
<path d="M2.37493 98.4839L8.25699 118.747C8.25699 118.747 40.2229 132.551 75.1869 112.858C75.1869 112.858 60.2245 114.24 51.859 106.18C51.859 106.18 91.3906 104.755 102.37 76.3373C102.37 76.3373 85.1948 90.8839 68.6522 88.519C68.6522 88.519 89.2833 76.7545 83.3904 56.6916C83.3904 56.6916 72.2746 78.928 50.7084 74.3363C50.7084 74.3363 56.909 65.886 52.5464 57.5818C52.5464 57.5818 50.9372 77.9125 26.7031 92.4164C26.7031 92.4164 33.0827 88.986 33.2791 82.3091C33.2773 82.3082 20.9606 95.5869 2.37493 98.4839Z" fill="#FF3900"/>
<path d="M85.0238 51.0932C85.0238 51.0932 94.3457 32.1859 81.4819 17.024C81.4819 17.024 92.5509 19.359 92.4822 31.2415C92.4822 31.2415 95.98 26.7224 94.6715 22.0407C94.6715 22.0407 106.049 40.3994 85.0238 51.0932Z" fill="#FF3900"/>
<path d="M105.723 73.5991C105.723 73.5991 116.472 73.8102 116.678 57.1379C116.678 57.1388 123.778 81.2728 105.723 73.5991Z" fill="#FF3900"/>
</svg>
