<svg width="32" height="32" viewBox="0 0 32 32" fill="none" xmlns="http://www.w3.org/2000/svg">
<g clip-path="url(#clip0_741_1657)">
<path d="M14.3334 2.66669C15.2553 2.66669 16 3.41148 16 4.33335V15.1667H12.6667V4.33335C12.6667 3.41148 13.4115 2.66669 14.3334 2.66669ZM19.3334 11C20.2553 11 21 11.7448 21 12.6667V16C21 16.9219 20.2553 17.6667 19.3334 17.6667C18.4115 17.6667 17.6667 16.9219 17.6667 16V12.6667C17.6667 11.7448 18.4115 11 19.3334 11ZM22.6667 14.3334C22.6667 13.4115 23.4115 12.6667 24.3334 12.6667C25.2553 12.6667 26 13.4115 26 14.3334V17.6667C26 18.5886 25.2553 19.3334 24.3334 19.3334C23.4115 19.3334 22.6667 18.5886 22.6667 17.6667V14.3334ZM7.52609 5.33335L11.8282 15.1667H8.18755L4.474 6.66669C4.10421 5.82294 4.48963 4.84377 5.33338 4.47398C6.17713 4.10419 7.1615 4.4896 7.52609 5.33335ZM8.93234 16.8594L8.92192 16.8334H12.5625H13.9219C15.073 16.8334 16.0053 17.7656 16.0053 18.9167C16.0053 20.0677 15.073 21 13.9219 21H11.0053C10.5469 21 10.1719 21.375 10.1719 21.8334C10.1719 22.2917 10.5469 22.6667 11.0053 22.6667H13.9219C15.9948 22.6667 17.6719 20.9896 17.6719 18.9167V18.8854C18.1615 19.1667 18.7292 19.3334 19.3386 19.3334C20.0261 19.3334 20.6615 19.125 21.1928 18.7709C21.6459 20.0677 22.8855 21 24.3386 21C24.948 21 25.5157 20.8386 26.0053 20.5521V21C26.0053 25.6042 22.2761 29.3334 17.6719 29.3334H14.4584C12.25 29.3334 10.1303 28.4531 8.56775 26.8906L7.96359 26.2865C6.70317 25.0365 6.00005 23.3386 6.00005 21.5729V20.1667C6.00005 18.4636 7.2813 17.0573 8.93234 16.8594Z" fill="black"/>
</g>
<defs>
<clipPath id="clip0_741_1657">
<rect width="26.6667" height="26.6667" fill="white" transform="translate(2.66675 2.66669)"/>
</clipPath>
</defs>
</svg>
