<svg width="32" height="32" viewBox="0 0 32 32" fill="none" xmlns="http://www.w3.org/2000/svg">
<path d="M7.66675 7.66667C7.66675 6.74619 8.41294 6 9.33341 6H11.8334C12.7539 6 13.5001 6.74619 13.5001 7.66667V24.3333C13.5001 25.2538 12.7539 26 11.8334 26H9.33341C8.41294 26 7.66675 25.2538 7.66675 24.3333V7.66667Z" fill="black"/>
<path d="M19.3334 7.66667C19.3334 6.74619 20.0796 6 21.0001 6H23.5001C24.4206 6 25.1667 6.74619 25.1667 7.66667V24.3333C25.1667 25.2538 24.4206 26 23.5001 26H21.0001C20.0796 26 19.3334 25.2538 19.3334 24.3333V7.66667Z" fill="black"/>
</svg>
