<svg preserveAspectRatio="none" overflow="visible" style="display: block;" width="73.9997" height="68.2206" viewBox="0 0 73.9997 68.2206" fill="none" xmlns="http://www.w3.org/2000/svg">
<g id="Hand_7" filter="url(#filter0_d_0_4)">
<path id="Vector" d="M64.7104 20.0186C62.5266 18.0774 60.3914 17.9804 59.6149 17.9804C59.5664 17.9804 59.5664 17.9804 59.5179 17.9804C59.3723 17.9804 59.2752 17.9804 59.2752 17.9804C59.2752 17.9804 60.537 17.398 63.2546 16.1363C64.6134 15.5054 66.1663 11.1864 61.7502 7.83791C58.062 5.07178 52.4812 6.86733 52.4812 6.86733C50.8798 -0.606073 41.8534 3.85857 38.1167 8.6629C34.38 13.4672 34.1374 18.9995 31.6624 22.2509C29.1875 25.5023 24.6258 27.589 22.7332 25.9876C20.8406 24.3862 21.617 20.0671 19.7729 15.8451C17.9288 11.6231 12.3966 9.14818 9.29074 11.1864C6.23344 13.2246 5.79668 17.0583 9.67897 20.9892C16.1333 26.4729 10.5525 35.9845 14.6774 41.2256C8.029 41.08 8.90252 49.2813 16.1333 54.4739C22.7332 59.2297 30.5463 57.7738 29.7213 52.2416C35.9815 52.6298 45.9784 45.3505 48.0166 37.8286C48.793 36.8095 51.2195 33.5095 55.6356 31.2772C60.0517 29.0449 62.0899 30.2096 64.5648 28.7537C64.9045 28.5596 65.1957 28.3655 65.4384 28.1229C65.4869 28.0743 65.4869 28.0743 65.5354 28.0258C65.5839 27.9773 65.6325 27.9287 65.681 27.8802C68.0104 25.842 67.3795 22.3965 64.7104 20.0186Z" fill="white"/>
<g id="Vector_2">
<path d="M45.6133 1.34246C47.317 0.886526 49.2268 0.796607 50.9192 1.63143C52.1779 2.25233 53.1182 3.28621 53.7331 4.65128C54.2778 4.55828 54.9221 4.47507 55.628 4.43584C57.6088 4.32579 60.3428 4.54784 62.6567 6.1704L62.8876 6.33805C65.5332 8.34417 66.5584 10.8036 66.5501 13.013C66.5459 14.083 66.2983 15.0686 65.9037 15.8733C65.6118 16.4687 65.1661 17.106 64.5486 17.5483C64.9314 17.7892 65.3209 18.0692 65.7111 18.3961L65.9611 18.6116L65.9626 18.613C67.5631 20.039 68.6598 21.8781 68.9339 23.813C69.2122 25.7786 68.6168 27.7745 66.9809 29.2417C66.9793 29.2433 66.9779 29.2455 66.9758 29.2476C66.8949 29.3285 67.0197 29.203 66.939 29.2836C66.9067 29.3159 66.8985 29.3242 66.8662 29.3564C66.8589 29.3637 66.8403 29.3831 66.8376 29.3858C66.7974 29.426 66.8564 29.3663 66.8177 29.405C66.7692 29.4534 66.8297 29.393 66.7692 29.4535C66.3596 29.8631 65.9091 30.1513 65.5184 30.3755C65.5143 30.378 65.5101 30.3805 65.5059 30.3829C65.5034 30.3844 65.5011 30.3866 65.4986 30.388L65.4979 30.3873C63.8621 31.3426 62.3027 31.4385 61.0596 31.5925C59.8084 31.7475 58.4287 31.9744 56.4846 32.9572C52.8018 34.8188 50.6383 37.5004 49.7265 38.691C48.4744 42.8511 45.2154 46.7212 41.5971 49.4954C38.5304 51.8467 34.8953 53.6443 31.5802 54.0505C31.4113 55.0847 30.9831 56.0243 30.3037 56.8174C29.2251 58.0767 27.6738 58.7873 26.0309 59.0704C22.7618 59.6337 18.6562 58.6125 15.0324 56.0013C11.1235 53.1932 8.69457 49.4126 8.32946 46.0513C8.14419 44.3453 8.4872 42.5861 9.67872 41.2505C10.2623 40.5964 10.9836 40.1199 11.8037 39.8057C11.4606 38.8143 11.2808 37.7941 11.189 36.7961C11.0186 34.9434 11.1356 32.9114 11.1699 31.1616C11.2426 27.4478 10.9607 24.5477 8.46034 22.4233C8.41857 22.3879 8.37826 22.3506 8.33975 22.3116C6.17884 20.1236 4.99164 17.7316 5.00004 15.3711C5.00871 12.9507 6.27492 10.9348 8.24637 9.6204L8.25813 9.61231C10.5485 8.10942 13.4451 8.41251 15.7706 9.44834C18.1413 10.5043 20.363 12.4936 21.4978 15.0917C22.5391 17.4756 22.8339 19.8801 23.0964 21.6182C23.2346 22.5336 23.354 23.2146 23.5243 23.7483C23.6912 24.2713 23.8524 24.4685 23.9493 24.5505C23.9642 24.5631 24.0986 24.6673 24.5243 24.655C24.9529 24.6425 25.539 24.5104 26.2331 24.2108C27.6264 23.6094 29.1257 22.4758 30.1648 21.1108C31.1745 19.7843 31.7491 17.9597 32.6398 15.4167C33.4863 12.9997 34.5626 10.1665 36.6309 7.50716C38.7092 4.83519 42.2316 2.24751 45.6133 1.34246ZM49.2537 5.00716C48.6866 4.7275 47.8059 4.65275 46.5861 4.97922C44.1201 5.63926 41.2607 7.68593 39.6023 9.81819C37.934 11.9631 37.0204 14.2985 36.1927 16.6616C35.4092 18.8986 34.6255 21.4662 33.1603 23.391C31.7244 25.2774 29.7045 26.813 27.725 27.6675C26.733 28.0956 25.6693 28.3882 24.6331 28.4182C23.5955 28.4482 22.4492 28.2136 21.517 27.4248C20.6676 26.7061 20.2157 25.7624 19.9383 24.8932C19.6643 24.0349 19.5083 23.072 19.3736 22.18C19.0901 20.3027 18.8507 18.4364 18.0478 16.5983C17.3386 14.9746 15.872 13.6147 14.239 12.8873C12.5633 12.1409 11.1423 12.2247 10.3265 12.7579C9.24674 13.4808 8.76836 14.3985 8.76475 15.3844C8.76104 16.4267 9.29082 17.9051 10.9875 19.6344C14.8527 22.9866 15.0062 27.5407 14.9339 31.2351C14.8953 33.2037 14.7933 34.8752 14.9383 36.4513C15.0787 37.978 15.4382 39.1487 16.1567 40.0616C16.6069 40.6338 16.6869 41.4144 16.3618 42.066C16.0365 42.7176 15.3642 43.1231 14.6361 43.1072C13.3571 43.0792 12.7623 43.4492 12.4875 43.7572C12.199 44.0807 11.9662 44.6696 12.0721 45.6447C12.2893 47.6448 13.9111 50.5605 17.2309 52.9447L17.2339 52.9469C20.2098 55.0912 23.3109 55.7195 25.392 55.3608C26.4241 55.1829 27.0843 54.7892 27.4449 54.3682C27.7701 53.9883 27.9947 53.4247 27.8596 52.5189C27.7759 51.9572 27.9499 51.3875 28.3339 50.9689C28.7179 50.5503 29.2706 50.3279 29.8375 50.363C32.3089 50.5163 35.9243 49.1012 39.3067 46.5079C42.6541 43.9413 45.3262 40.558 46.1993 37.3366L46.2559 37.163C46.3202 36.9931 46.4087 36.8331 46.5192 36.688C47.3179 35.6397 49.9619 32.0363 54.7861 29.5976C57.258 28.3481 59.1058 28.0411 60.5964 27.8564C62.0899 27.6714 62.7788 27.6205 63.6104 27.1314L63.6309 27.1197C63.9151 26.9573 64.0388 26.8603 64.1074 26.7917L64.3501 26.5491L64.4412 26.4638C65.0882 25.8977 65.3251 25.1777 65.2067 24.341C65.0804 23.4496 64.5271 22.3771 63.4596 21.4255L63.3008 21.288C61.8709 20.0876 60.5329 19.8966 59.8655 19.8675L59.6148 19.863H59.2751C58.3912 19.863 57.6265 19.2476 57.4368 18.3844C57.2472 17.521 57.6836 16.6416 58.4861 16.2711H58.4876L58.4898 16.2697C58.4922 16.2686 58.4959 16.2668 58.5008 16.2645C58.5106 16.26 58.5258 16.2531 58.5456 16.2439C58.5853 16.2256 58.645 16.1978 58.7251 16.1608C58.8855 16.0867 59.1281 15.9748 59.4552 15.8233C60.0935 15.5278 61.0549 15.0823 62.3618 14.4755C62.3894 14.4432 62.4501 14.3658 62.5236 14.216C62.6644 13.9289 62.7834 13.5062 62.7854 12.9991C62.789 12.0543 62.3827 10.6803 60.6126 9.33805C59.2846 8.34667 57.5009 8.10221 55.8368 8.19466C55.0297 8.23951 54.3171 8.36062 53.8074 8.4704C53.5541 8.52495 53.3547 8.57592 53.2243 8.61157C53.1594 8.62932 53.1116 8.64279 53.0831 8.65128C53.0697 8.65529 53.0605 8.65794 53.0559 8.65937C52.55 8.82165 51.9991 8.76284 51.539 8.49687C51.0785 8.23059 50.752 7.78175 50.6405 7.26158C50.3283 5.80498 49.7433 5.24867 49.2537 5.00716Z" fill="black"/>
<path d="M52.0978 5.11208C53.1208 4.9272 54.1004 5.6067 54.2853 6.62972C54.4698 7.65165 53.7918 8.62949 52.7706 8.81575H52.7735C52.7753 8.81542 52.7771 8.81458 52.7787 8.81428L52.7963 8.81134C52.7963 8.81134 52.7898 8.8127 52.7801 8.81502C52.7548 8.82109 52.7005 8.83464 52.6198 8.85914C52.4582 8.90823 52.1883 9.00052 51.8279 9.16134C51.1088 9.48231 50.0174 10.0801 48.6882 11.1606C46.0339 13.3183 42.378 17.4459 38.8625 25.2555C38.4357 26.2034 37.3215 26.6263 36.3735 26.1996C35.4256 25.7728 35.0034 24.6585 35.4301 23.7106C39.1453 15.4574 43.1327 10.8253 46.3139 8.23928C47.9024 6.94811 49.2769 6.17782 50.2941 5.72384C50.8019 5.49721 51.2186 5.3502 51.5257 5.25693C51.6791 5.21034 51.8053 5.17707 51.9015 5.15399C51.9494 5.14249 51.99 5.13367 52.0228 5.12678C52.0391 5.12336 52.0537 5.1204 52.0662 5.11796C52.0724 5.11674 52.0785 5.11528 52.0838 5.11428C52.0864 5.1138 52.0888 5.11324 52.0912 5.11281H52.0948C52.0971 5.11649 52.1142 5.1997 52.4331 6.96428L52.0978 5.11208Z" fill="black"/>
<path d="M34.1372 23.3185C37.2915 23.27 41.7076 27.492 43.3091 30.0155C43.9399 31.1316 44.4737 32.3934 44.6679 33.7036C44.7164 33.8977 44.5708 34.0433 44.3767 34.0919C44.2311 34.0919 44.134 34.0433 44.037 33.9948C43.1635 33.0728 42.387 32.1992 41.5135 31.3743C40.64 30.5493 39.912 29.6757 39.0385 28.8508C38.6988 28.2199 32.5357 23.7067 34.1372 23.3185Z" fill="black"/>
<path d="M30.6918 27.589C32.2447 29.336 33.0211 31.5683 34.7196 33.2183C36.1755 34.5771 37.8255 35.6447 39.621 36.5182C39.9122 36.6638 40.2034 36.8094 40.4945 37.0035C40.6401 37.1006 40.6887 37.2947 40.5916 37.4403C40.5431 37.5373 40.446 37.5859 40.349 37.5859C39.0387 37.7314 37.6799 37.6344 36.4181 37.1491C33.8946 36.2271 31.8079 33.9947 30.6918 31.6168C30.1579 30.4036 29.7697 29.0448 30.2065 27.6375C30.255 27.4434 30.5462 27.3949 30.6918 27.589Z" fill="black"/>
<path d="M59.2159 16.1456C59.2411 16.146 59.2627 16.1464 59.2806 16.147C59.2896 16.1473 59.2978 16.1482 59.3049 16.1485H59.3188L59.321 16.1492C59.3217 16.1543 59.3185 16.2467 59.2321 17.9323L59.3232 16.1492C60.3613 16.2026 61.1594 17.0869 61.1063 18.125C61.0564 19.0982 60.276 19.861 59.3232 19.9088H59.1372C59.1394 19.9089 59.1414 19.9094 59.1431 19.9095H59.1497C59.1421 19.9094 59.1205 19.9097 59.0857 19.9103C59.016 19.9115 58.8927 19.9158 58.7196 19.9316C58.3731 19.9631 57.826 20.0394 57.1085 20.2228C55.6775 20.5885 53.5475 21.3859 50.963 23.1316C48.3598 24.8898 46.4286 26.7978 45.1527 28.2617C44.5158 28.9924 44.0457 29.6088 43.7394 30.0345C43.5863 30.2472 43.4742 30.412 43.4034 30.5191C43.368 30.5726 43.3426 30.6118 43.3277 30.6353C43.3206 30.6464 43.3161 30.6542 43.3137 30.658L43.3129 30.6573C42.7707 31.544 41.6131 31.8236 40.7262 31.2816C39.8393 30.7394 39.5599 29.5811 40.1019 28.6941L41.7078 29.6757C40.1249 28.7083 40.1019 28.6941 40.1019 28.6941L40.1041 28.6897C40.1051 28.6881 40.1066 28.6865 40.1078 28.6845C40.1105 28.6801 40.114 28.6741 40.1181 28.6676C40.1262 28.6546 40.1371 28.6372 40.1504 28.6161C40.1773 28.5739 40.2147 28.5155 40.2629 28.4426C40.3597 28.2963 40.4999 28.0904 40.6835 27.8353C41.0505 27.3253 41.5934 26.6163 42.3152 25.7882C43.7568 24.1342 45.9265 21.9901 48.8556 20.0117C51.8032 18.0208 54.3316 17.0464 56.1762 16.575C57.0966 16.3397 57.8422 16.2311 58.3784 16.1823C58.6461 16.1579 58.8615 16.1483 59.0203 16.1456C59.0998 16.1442 59.1653 16.1447 59.2159 16.1456Z" fill="black"/>
<path d="M15.6478 40.5946C16.9095 42.1961 18.511 43.3122 20.0154 44.7195C20.6462 45.7386 18.4624 45.1563 18.0742 45.0107C16.3757 44.4284 14.7743 43.4578 13.7066 42.0019C12.7846 40.6431 14.7257 39.2843 15.6478 40.5946Z" fill="black"/>
<path d="M16.0846 42.2446C15.842 43.652 15.8905 45.1078 16.5699 46.3696C16.764 46.8549 17.1037 47.2916 17.4434 47.7769C17.5405 47.9225 17.492 48.1651 17.3464 48.2622C17.2493 48.3107 17.1523 48.3107 17.0552 48.3107C15.017 47.8254 13.7553 45.7387 13.5611 43.749C13.5126 43.0211 13.5126 42.3902 13.7067 41.6623C14.1435 40.1094 16.4243 40.6917 16.0846 42.2446Z" fill="black"/>
<path d="M29.7213 53.5032C26.9066 53.4062 24.0434 51.3195 23.6552 48.4563C23.6067 48.1166 24.0434 47.971 24.2376 48.2136C25.6934 49.7666 27.5375 51.0283 29.7213 51.1254C31.3227 51.1254 31.3227 53.4547 29.7213 53.5032Z" fill="black"/>
<path d="M29.9637 53.2606C27.8769 54.9106 24.5285 54.8621 22.7814 52.8239C22.5873 52.4842 21.8594 51.8533 22.2961 51.5136C22.6358 51.368 23.1697 51.7563 23.4608 51.8533C24.2373 52.1445 24.9652 52.3871 25.7902 52.3386C26.7608 52.2901 27.6828 51.9019 28.4593 51.368C29.721 50.3975 31.1769 52.193 29.9637 53.2606Z" fill="black"/>
<path d="M34.6712 36.2756C32.3903 36.2271 30.158 37.1006 28.411 38.508C26.5669 40.0609 25.3052 42.2932 24.5287 44.574C24.4316 44.9137 23.8978 44.8652 23.8978 44.5255C23.8008 38.7506 29.0904 33.5095 34.9138 33.8492C36.5638 34.0433 36.3212 36.4212 34.6712 36.2756Z" fill="black"/>
<path d="M32.1964 32.83C30.692 33.558 28.7509 33.1212 27.6832 31.908C27.3435 31.5683 26.4215 30.0639 27.4891 30.2095C28.4597 30.5492 29.4303 31.0345 30.4494 30.8404C30.692 30.7918 30.9832 30.6948 31.1773 30.6462C32.5846 30.0154 33.6523 32.1021 32.1964 32.83Z" fill="black"/>
</g>
</g>
<defs>
<filter id="filter0_d_0_4" x="-1.12203e-07" y="2.25336e-08" width="73.9997" height="68.2206" filterUnits="userSpaceOnUse" color-interpolation-filters="sRGB">
<feFlood flood-opacity="0" result="BackgroundImageFix"/>
<feColorMatrix in="SourceAlpha" type="matrix" values="0 0 0 0 0 0 0 0 0 0 0 0 0 0 0 0 0 0 127 0" result="hardAlpha"/>
<feOffset dy="4"/>
<feGaussianBlur stdDeviation="2.5"/>
<feComposite in2="hardAlpha" operator="out"/>
<feColorMatrix type="matrix" values="0 0 0 0 0 0 0 0 0 0 0 0 0 0 0 0 0 0 0.08 0"/>
<feBlend mode="normal" in2="BackgroundImageFix" result="effect1_dropShadow_0_4"/>
<feBlend mode="normal" in="SourceGraphic" in2="effect1_dropShadow_0_4" result="shape"/>
</filter>
</defs>
</svg>
